# xmcd
#
# Track frame offsets: 
#        150
#        21470
#        42221
#        60986
#        85592
#        108434
#        136992
#        164211
#        180293
#        195179
#        225071
#        241353
#        264543
#        279299
#        296902
#        318011
#        342256
#
# Disc length: 4752 seconds
#
# Revision: 0
# Processed by: cddbd v1.5.2PL0 Copyright (c) Steve Scherf et al.
# Submitted via: ExactAudioCopy v0.95a5
#
DISCID=de128e11
DTITLE=Various Artist - Akella Presents - Blues-Women - vol.5  CD2
DYEAR=2010
DGENRE=Blues
TTITLE0=Stranger In Your Eyes - FIONA BOYES
TTITLE1=I Don't Smoke - BONNY B.
TTITLE2=Ain't No Sunshine - BIG TIME SARAH
TTITLE3=Phonecall from Leavenworth - CAFE R&B
TTITLE4=Back Door Man - DIUNNA GREENLEAF
TTITLE5=Empty Bed Blues - DANA GILLESPIE
TTITLE6=Strange Behaviour - RITA CHIARELLI
TTITLE7=Wade In The Water - HARRIET LEWIS
TTITLE8=Just Call Me Up - BETH HART and The OCEAN OF SOUL
TTITLE9=Gotta Serve Somebody - MAVIS STAPLES
TTITLE10=Sweet Hands - GRACE POTTER
TTITLE11=Movin' On - DAWN TYLER BLUES PROJECT
TTITLE12=My Little Boy Blue - MICKEY CHAMPION
TTITLE13=I Put A Hex On You - CANDYE KANE
TTITLE14=My real daddy - GALEA
TTITLE15=This Song Is For You - MEENA
TTITLE16=Woman Ain't a Mule - FIONA BOYES
EXTD=
EXTT0=
EXTT1=
EXTT2=
EXTT3=
EXTT4=
EXTT5=
EXTT6=
EXTT7=
EXTT8=
EXTT9=
EXTT10=
EXTT11=
EXTT12=
EXTT13=
EXTT14=
EXTT15=
EXTT16=
PLAYORDER=
